<svg width="21" height="55" viewBox="0 0 21 55" fill="none" xmlns="http://www.w3.org/2000/svg">
<g clip-path="url(#clip0)">
<path d="M21 0L21 55C17.9926 54.1004 15.1527 52.7454 12.5866 50.9859C10.0469 49.2472 7.80387 47.1375 5.93817 44.7327C4.05314 42.3073 2.57894 39.609 1.57048 36.7383C0.526913 33.7623 -0.00361993 30.6415 -7.13262e-06 27.5C-0.00362319 24.3585 0.52691 21.2377 1.57048 18.2617C2.57894 15.391 4.05314 12.6927 5.93817 10.2673C7.80388 7.86248 10.0469 5.75278 12.5866 4.01414C15.1527 2.2546 17.9926 0.899639 21 0Z" fill="black" fill-opacity="0.4"/>
<path d="M8.6368 21.1357C14.4553 26.7452 14.1246 26.4223 14.1987 26.5092C14.4432 26.7963 14.5735 27.1581 14.5662 27.5295C14.5589 27.9009 14.4145 28.2577 14.1589 28.5356C14.1549 28.5401 14.1511 28.5446 14.1469 28.5489C14.1041 28.5933 14.4179 28.2902 8.6368 33.8643C8.33306 34.1572 7.92108 34.3217 7.4915 34.3217C7.06192 34.3218 6.64993 34.1572 6.34615 33.8644C6.04238 33.5715 5.87171 33.1743 5.87169 32.7601C5.87167 32.3459 6.0423 31.9486 6.34604 31.6557L9.03643 29.0617L0.0431714 29.0617C0.0143934 28.5429 4.36541e-06 28.0223 4.41107e-06 27.5C4.45674e-06 26.9776 0.0143935 26.4571 0.0431717 25.9383L9.03666 25.9383L6.34626 23.3443C6.19502 23.1994 6.07491 23.0272 5.99283 22.8375C5.91075 22.6479 5.86831 22.4444 5.86794 22.2389C5.86758 22.0333 5.9093 21.8298 5.9907 21.6398C6.07211 21.4499 6.1916 21.2773 6.34233 21.1319C6.49306 20.9866 6.67206 20.8714 6.86907 20.7929C7.06608 20.7144 7.27722 20.6742 7.49038 20.6745C7.70355 20.6749 7.91454 20.7158 8.11127 20.7949C8.308 20.8741 8.48659 20.9899 8.6368 21.1357Z" fill="#EBEBEB"/>
</g>
<defs>
<clipPath id="clip0">
<rect width="21" height="55" fill="white" transform="translate(21 55) rotate(-180)"/>
</clipPath>
</defs>
</svg>
