<svg width="21" height="55" viewBox="0 0 21 55" fill="none" xmlns="http://www.w3.org/2000/svg">
<g clip-path="url(#clip0)">
<path d="M0 55L0 0C3.00739 0.89964 5.84731 2.2546 8.4134 4.01414C10.9531 5.75278 13.1961 7.86248 15.0618 10.2673C16.9469 12.6927 18.4211 15.391 19.4295 18.2617C20.4731 21.2377 21.0036 24.3585 21 27.5C21.0036 30.6415 20.4731 33.7623 19.4295 36.7383C18.4211 39.609 16.9469 42.3073 15.0618 44.7327C13.1961 47.1375 10.9531 49.2472 8.4134 50.9859C5.84731 52.7454 3.00739 54.1004 0 55Z" fill="black" fill-opacity="0.4"/>
<path d="M12.3632 33.8643C6.54474 28.2548 6.87539 28.5777 6.80129 28.4908C6.55678 28.2037 6.42646 27.8419 6.43376 27.4705C6.44106 27.0991 6.5855 26.7423 6.84112 26.4644C6.84513 26.4599 6.84891 26.4554 6.85314 26.4511C6.89586 26.4067 6.58212 26.7098 12.3632 21.1357C12.6669 20.8428 13.0789 20.6783 13.5085 20.6783C13.9381 20.6782 14.3501 20.8428 14.6538 21.1356C14.9576 21.4285 15.1283 21.8257 15.1283 22.2399C15.1283 22.6541 14.9577 23.0514 14.654 23.3443L11.9636 25.9383H20.9568C20.9856 26.4571 21 26.9777 21 27.5C21 28.0223 20.9856 28.5429 20.9568 29.0617H11.9633L14.6537 31.6557C14.805 31.8006 14.9251 31.9728 15.0072 32.1625C15.0892 32.3521 15.1317 32.5556 15.1321 32.7611C15.1324 32.9667 15.0907 33.1702 15.0093 33.3602C14.9279 33.5501 14.8084 33.7227 14.6577 33.8681C14.5069 34.0134 14.3279 34.1286 14.1309 34.2071C13.9339 34.2856 13.7228 34.3258 13.5096 34.3255C13.2965 34.3251 13.0855 34.2842 12.8887 34.2051C12.692 34.1259 12.5134 34.0101 12.3632 33.8643Z" fill="#EBEBEB"/>
</g>
<defs>
<clipPath id="clip0">
<rect width="21" height="55" fill="white"/>
</clipPath>
</defs>
</svg>
