<svg width="40" height="34" viewBox="0 0 40 34" fill="none" xmlns="http://www.w3.org/2000/svg">
<g clip-path="url(#clip0_1_2)">
<path fill-rule="evenodd" clip-rule="evenodd" d="M19.5246 29.757C21.0191 29.757 22.3735 30.3542 23.3694 31.349C24.3451 32.3245 24.9431 33.6783 24.9431 35.17V45.0002C26.0792 44.4232 27.1148 43.6667 28.0112 42.7916C30.1829 40.6023 31.518 37.6179 31.518 34.3151V20.1631C31.518 16.8796 30.1829 13.8749 28.0112 11.7059C27.5138 11.209 26.9757 10.7709 26.4173 10.3724C26.0386 11.1482 25.5208 11.8651 24.9228 12.4816C23.5278 13.8547 21.6354 14.7105 19.5236 14.7105C17.4118 14.7105 15.5194 13.8547 14.1447 12.4816C13.5467 11.8651 13.0289 11.1482 12.6502 10.3724C12.0918 10.7699 11.5547 11.208 11.0562 11.7059C8.88458 13.8749 7.5292 16.8796 7.5292 20.1631V34.3151C7.5292 37.6179 8.88458 40.6033 11.0562 42.7916C11.9527 43.6667 12.9883 44.4232 14.1041 45.0002V35.17C14.1041 33.6773 14.7214 32.3245 15.6981 31.349C16.6747 30.3542 18.0494 29.757 19.5236 29.757H19.5246Z" fill="#1E9380"/>
<path fill-rule="evenodd" clip-rule="evenodd" d="M19.5246 13.3761C21.2577 13.3761 22.8314 12.6794 23.9675 11.5457C24.5056 11.0082 24.9634 10.3714 25.2822 9.65548V9.6352L25.3025 9.57537L25.3228 9.55509L25.3431 9.51554V9.49526L25.3635 9.45571L25.3838 9.43543V9.39589L25.4041 9.3756V9.35532L25.4244 9.31577V9.29549L25.4447 9.27521V9.23566L25.465 9.21538L25.4853 9.15555V9.13527L25.5056 9.09572V9.05617L25.5259 9.01663V8.99635L25.5462 8.97606V8.93651L25.5665 8.91623V8.87669L25.5868 8.81686V8.79657L25.6071 8.75703V8.71647L25.6274 8.69618V8.63636L25.6477 8.61608V8.57653L25.668 8.5167V8.49642L25.6883 8.45687V8.43659C25.7878 7.99953 25.8274 7.56146 25.8274 7.10311V6.60622C25.8274 6.22797 25.7878 5.87002 25.7279 5.51205L25.4894 4.71602C25.1706 3.78106 24.6528 2.90593 23.936 2.20927C22.7806 1.035 21.2059 0.378906 19.5328 0.378906C17.8596 0.378906 16.3052 1.03601 15.1295 2.20927C14.4321 2.90593 13.895 3.78106 13.5955 4.71602L13.3569 5.51205C13.2777 5.87002 13.2574 6.22797 13.2574 6.60622V7.10311C13.2574 7.56045 13.297 7.99851 13.3965 8.43659L13.4168 8.49642V8.5167L13.4371 8.57653V8.63636L13.4574 8.6759V8.73573L13.4777 8.75602L13.498 8.79557V8.81584L13.5183 8.87567V8.91522L13.5386 8.95477V8.97505L13.5589 9.0146V9.05415L13.5792 9.09369L13.5995 9.11397V9.17381L13.6198 9.19409L13.6402 9.23465V9.2742L13.6605 9.31375V9.33403L13.6808 9.39385L13.7011 9.41414L13.7214 9.45369V9.47396L13.7417 9.49425V9.51453L13.762 9.55408V9.57436L13.7823 9.59464V9.61492L13.8026 9.6352V9.65548C14.1214 10.3714 14.56 11.0092 15.0981 11.5457C16.2535 12.6804 17.8281 13.3761 19.5409 13.3761H19.5246Z" fill="#1E9380"/>
<path fill-rule="evenodd" clip-rule="evenodd" d="M27.0955 8.08277H37.835C38.1731 8.08277 38.4716 7.94283 38.7112 7.72481C38.9305 7.50577 39.0696 7.18736 39.0696 6.84867C39.0696 6.50997 38.9305 6.21184 38.7112 5.9928C38.4716 5.77377 38.1731 5.63484 37.835 5.63484H34.4674V5.67439H27.0955C27.1351 5.9928 27.1554 6.29093 27.1554 6.61036V7.10725C27.1554 7.42566 27.1351 7.76436 27.0955 8.08277Z" fill="#1E9380"/>
<path fill-rule="evenodd" clip-rule="evenodd" d="M11.9142 6.61036C11.9142 6.29195 11.9345 5.9928 11.9741 5.67439H4.60222V5.63484H1.23457C0.896486 5.63484 0.577691 5.77478 0.358393 5.9928C0.139095 6.21184 0 6.50997 0 6.84867C0 7.18736 0.139095 7.50577 0.358393 7.72481C0.577691 7.94384 0.896486 8.08277 1.23457 8.08277H11.9741C11.9345 7.76436 11.9142 7.42566 11.9142 7.10725V6.61036Z" fill="#1E9380"/>
<path d="M19.5246 16.6798C20.9196 16.6798 22.1745 17.2366 23.0913 18.133C23.9877 19.0487 24.5461 20.302 24.5461 21.6943C24.5461 23.0866 23.9877 24.3207 23.0913 25.2364C22.1745 26.1511 20.9196 26.7089 19.5246 26.7089C18.1296 26.7089 16.8941 26.1511 15.9783 25.2364C15.0818 24.3207 14.5041 23.0674 14.5041 21.6943C14.5041 20.3213 15.0818 19.0477 15.9783 18.133C16.8951 17.2376 18.1499 16.6798 19.5246 16.6798ZM22.3136 18.9087C21.6161 18.1928 20.6191 17.7547 19.5246 17.7547C18.4302 17.7547 17.4525 18.1928 16.7357 18.9087C16.0189 19.6054 15.5803 20.6002 15.5803 21.6943C15.5803 22.7885 16.0179 23.764 16.7357 24.48C17.4525 25.1959 18.4495 25.634 19.5246 25.634C20.5998 25.634 21.6171 25.1959 22.3136 24.48C23.0303 23.764 23.4689 22.7682 23.4689 21.6943C23.4689 20.6205 23.0314 19.6054 22.3136 18.9087Z" fill="white"/>
</g>
<defs>
<clipPath id="clip0_1_2">
<rect width="39.1489" height="33.1999" fill="white" transform="translate(0 0.378906)"/>
</clipPath>
</defs>
</svg>
