<svg width="13" height="14" viewBox="0 0 13 14" fill="none" xmlns="http://www.w3.org/2000/svg">
<path d="M12.5465 10.4828C12.5465 10.4671 12.5323 10.4671 12.5323 10.4514C12.5323 10.4472 12.5307 10.4432 12.5277 10.4403C12.5248 10.4373 12.5208 10.4357 12.5166 10.4357C12.4645 10.292 12.3831 10.1607 12.2775 10.0503L12.2633 10.0345L12.2177 9.98892C12.0711 9.84194 11.8996 9.72211 11.7112 9.63498C11.6457 9.59901 11.5752 9.57303 11.502 9.5579C11.4134 9.5397 11.3234 9.52918 11.233 9.52644C11.1336 9.52345 11.0342 9.52871 10.9357 9.54217H10.9058C10.8846 9.53972 10.8633 9.54534 10.846 9.5579C10.4655 9.63588 10.1262 9.84941 9.89121 10.1588L9.86132 10.1903C9.84559 10.2044 9.8157 10.2359 9.80155 10.2516C9.59916 10.4557 9.37913 10.6415 9.14402 10.8069C8.89683 10.9614 8.63747 11.0956 8.36851 11.208H8.35436C8.11619 11.3019 7.87178 11.3792 7.62289 11.4393C6.95257 11.5873 6.25639 11.5711 5.59368 11.3921C5.53391 11.3763 5.4584 11.3464 5.39863 11.3307C5.33885 11.315 5.28065 11.2851 5.22087 11.2694C5.18 11.2564 5.14005 11.2406 5.10132 11.2222C5.02327 11.1934 4.94798 11.1576 4.87638 11.1152C4.87221 11.1152 4.86821 11.1136 4.86525 11.1106C4.86231 11.1077 4.86065 11.1036 4.86065 11.0995C4.3241 10.8336 3.84352 10.4673 3.44492 10.0204C3.05003 9.56743 2.75522 9.03622 2.57975 8.4615C2.35845 7.72234 2.30472 6.94314 2.42245 6.1806C2.42245 6.1806 2.94469 2.56262 6.86941 2.47925C7.75063 2.51653 8.60159 2.81131 9.31705 3.32711C7.05503 5.66307 4.08986 8.67858 4.08986 8.67858C4.47702 9.3758 5.11025 9.90359 5.86582 10.1588C6.29211 9.72622 12.5465 3.30352 12.5465 3.30352C12.5465 3.30352 11.955 2.23228 11.1135 1.61565C10.1379 0.767615 8.93434 0.225462 7.65278 0.056774C4.2802 -0.389968 0.833682 1.7997 0.0880643 5.84082C-0.493958 9.63498 1.87818 13.2341 5.62357 13.9058C7.92177 14.3384 10.9357 13.2891 12.6063 10.637C12.5794 10.5886 12.5593 10.5367 12.5465 10.4828Z" fill="#00747B"/>
</svg>
