<svg width="80" height="26" viewBox="0 0 80 26" fill="none" xmlns="http://www.w3.org/2000/svg">
<path d="M12.8955 12.6172C12.93 12.6489 12.9623 12.683 12.9919 12.7194L13.15 12.8775L12.8955 12.6172Z" fill="#005D98"/>
<path d="M55.7537 9.82935H58.1674V12.1487L60.2535 9.82935H63.5753L61.0208 12.7039L63.6852 17.6626H60.72L59.1796 14.7128L58.1674 15.8773V17.6626H55.7537V9.82935Z" fill="#005D98"/>
<path d="M46.509 9.82935H48.6972L52.2292 14.2096V9.82935H54.5775V17.6626H52.2292L48.8573 13.504L48.8611 17.6626H46.509V9.82935Z" fill="#005D98"/>
<path d="M3.41764 11.7921H6.86095V9.82556H1V17.653H6.86095V15.7058H3.41764V14.7225H6.27485V12.756H3.41764V12.7406V11.7921Z" fill="#005D98"/>
<path d="M30.2026 9.82935H34.7198C35.473 9.82935 36.0514 10.0164 36.455 10.3904C36.6499 10.5645 36.8049 10.7787 36.9094 11.0182C37.0139 11.2578 37.0654 11.5172 37.0603 11.7785C37.0697 12.215 36.9157 12.6392 36.6285 12.968C36.398 13.2127 36.1075 13.3928 35.786 13.4905C36.2652 13.5779 36.7015 13.8229 37.0256 14.1865C37.2986 14.5407 37.4391 14.9793 37.4228 15.4262C37.4286 15.8098 37.3314 16.188 37.1413 16.5212C36.9578 16.8426 36.6915 17.1089 36.3701 17.2924C36.0852 17.4408 35.7742 17.5324 35.4544 17.5623C35.0959 17.6162 34.7349 17.6516 34.3728 17.6684H30.2026V9.82935ZM32.6376 12.8967H33.6864C34.063 12.8967 34.3252 12.8324 34.473 12.7039C34.5487 12.6323 34.6076 12.5449 34.6456 12.448C34.6836 12.351 34.6997 12.2468 34.6928 12.1429C34.6985 12.0431 34.6818 11.9433 34.6437 11.8508C34.6057 11.7584 34.5473 11.6757 34.473 11.6088C34.3252 11.4803 34.0682 11.416 33.7019 11.416H32.6376V12.8967ZM32.6376 15.9679H33.8677C34.2828 15.9679 34.5759 15.894 34.7468 15.7462C34.8314 15.6728 34.8983 15.5813 34.9427 15.4785C34.9871 15.3757 35.0078 15.2643 35.0032 15.1524C35.0068 15.0464 34.9858 14.9409 34.942 14.8443C34.8982 14.7477 34.8327 14.6624 34.7507 14.5952C34.5823 14.4551 34.2867 14.3851 33.8638 14.3851H32.6376V15.9679Z" fill="#005D98"/>
<path d="M43.0062 16.3574H40.2665L39.881 17.6607H37.4209L40.3552 9.83521H42.9869L45.9212 17.6627H43.4014L43.0062 16.3574ZM42.5068 14.6666L41.645 11.8557L40.7909 14.6666H42.5068Z" fill="#005D98"/>
<path d="M19.0707 9.82935H16.6531V17.6626H19.0707V9.82935Z" fill="#005D98"/>
<path d="M29.0226 9.82935H26.6049H25.8569L24.6403 13.7527L23.418 9.82935H22.6681H20.2485H20.2446V17.6626H20.2485H22.2208H22.6681V13.7199L23.74 17.6626H25.5291L26.6049 13.7219V17.6626H27.0522H29.0226H29.0283V9.82935H29.0226Z" fill="#005D98"/>
<path d="M16.0379 16.2668L14.4955 14.7245C14.2697 14.4418 14.1455 14.0914 14.1427 13.7297C14.1449 13.3197 14.3059 12.9265 14.5919 12.6327L16.0437 11.1809C16.0556 11.1677 16.0625 11.1506 16.063 11.1327C16.0655 11.1197 16.0645 11.1062 16.06 11.0937C16.0556 11.0811 16.048 11.07 16.0379 11.0614V11.0614L14.4377 9.46313C14.4245 9.45103 14.4074 9.44418 14.3895 9.44385C14.3707 9.44441 14.3529 9.45197 14.3394 9.46506L12.9031 10.9033L11.9545 11.8326L12.6197 12.4977C13.065 12.9893 13.146 13.2997 13.146 13.7412C13.146 14.2926 12.9223 14.6493 12.5271 15.0426L11.9487 15.6113L14.322 17.9808C14.3353 17.9927 14.3524 17.9996 14.3702 18.0001C14.3881 17.9996 14.4052 17.9927 14.4184 17.9808L16.0244 16.3748L16.036 16.3632C16.0468 16.3502 16.0529 16.3339 16.0533 16.317C16.0545 16.2989 16.049 16.2811 16.0379 16.2668V16.2668Z" fill="#005D98"/>
<path d="M10.4699 10.7374L9.18979 9.45727C9.17652 9.44532 9.15944 9.43849 9.14159 9.43799C9.12375 9.43849 9.10666 9.44532 9.09339 9.45727L7.48742 11.0613L7.47585 11.0729C7.4646 11.0864 7.45846 11.1035 7.4585 11.1211C7.45891 11.1365 7.46432 11.1514 7.47392 11.1635V11.1635L9.01627 12.7059C9.24193 12.9879 9.3662 13.3376 9.36909 13.6987C9.3669 14.1088 9.20589 14.502 8.91988 14.7957C8.91988 14.7957 11.4898 12.8331 10.4699 10.7374Z" fill="url(#paint0_linear_227_1877)"/>
<path d="M12.3536 12.623L10.4681 10.7374C11.3665 12.7502 9.22262 14.5316 8.93536 14.817L7.48554 16.2668C7.47349 16.2799 7.4668 16.2971 7.4668 16.315C7.4668 16.3328 7.47349 16.35 7.48554 16.3632V16.3632L9.08574 17.9614C9.09891 17.9735 9.11605 17.9804 9.13393 17.9807C9.15271 17.9801 9.17059 17.9726 9.18406 17.9595L10.6204 16.5213L12.2591 14.8806C12.6119 14.5297 12.8105 14.2097 12.8105 13.7238C12.8144 13.344 12.7604 13.0645 12.3536 12.623Z" fill="#005D98"/>
<path d="M73.8089 2.03271H73.1206V13.7045H73.8089V2.03271Z" fill="url(#paint1_linear_227_1877)"/>
<path d="M78.5227 6.79865C78.5387 6.8827 78.549 6.96772 78.5536 7.05314C78.5522 7.30147 78.4637 7.54144 78.3033 7.73105C78.1429 7.92067 77.921 8.04786 77.6763 8.09037C79.1936 8.03446 79.2534 6.99723 79.2418 6.80251C79.0016 5.50851 78.3335 4.33281 77.3446 3.46427C76.3558 2.59574 75.1038 2.08478 73.7896 2.0135L73.4676 2H73.1206V3.21075C73.1556 3.05818 73.2455 2.92379 73.3731 2.83315C73.5007 2.7425 73.6572 2.70192 73.8127 2.71912C74.9349 2.79361 76.0021 3.23233 76.8522 3.96864C77.7023 4.70495 78.2888 5.6986 78.5227 6.79865V6.79865Z" fill="url(#paint2_linear_227_1877)"/>
<path d="M74.1943 13.6679C75.5762 13.495 76.8516 12.8363 77.7925 11.8096C78.7334 10.7829 79.2785 9.45501 79.3304 8.06333V8.06333C79.3304 7.992 79.3304 7.92259 79.3304 7.85126C79.3302 7.49234 79.2973 7.13419 79.2321 6.78125C79.2321 6.78125 79.2783 8.06333 77.5528 8.06333H74.1943V13.6679Z" fill="url(#paint3_linear_227_1877)"/>
<path style="mix-blend-mode:overlay" d="M74.1943 13.6679C75.5762 13.495 76.8516 12.8363 77.7925 11.8096C78.7334 10.7829 79.2785 9.45501 79.3304 8.06333V8.06333C79.3304 7.992 79.3304 7.92259 79.3304 7.85126C79.3302 7.49234 79.2973 7.13419 79.2321 6.78125C79.2321 6.78125 79.2783 8.06333 77.5528 8.06333H74.1943V13.6679Z" fill="url(#paint4_radial_227_1877)"/>
<path d="M68.4086 8.94065C68.3926 8.8566 68.3823 8.77158 68.3777 8.68616C68.3788 8.43866 68.4665 8.19936 68.6257 8.00987C68.785 7.82037 69.0055 7.69265 69.2491 7.64893C67.7318 7.70484 67.6721 8.74207 67.6836 8.93679C67.9235 10.2311 68.5915 11.4073 69.5803 12.2762C70.5692 13.1451 71.8214 13.6563 73.1359 13.7277L73.4578 13.7412H73.8049V12.5305C73.7698 12.6834 73.6797 12.8181 73.5517 12.9088C73.4237 12.9995 73.2667 13.0398 73.1108 13.0221C71.9896 12.9462 70.9238 12.5066 70.0752 11.77C69.2265 11.0334 68.6414 10.04 68.4086 8.94065V8.94065Z" fill="url(#paint5_linear_227_1877)"/>
<path d="M72.7349 2.07129C71.353 2.24417 70.0777 2.90284 69.1368 3.92956C68.1959 4.95628 67.6508 6.28415 67.5989 7.67582C67.5989 7.74523 67.5989 7.81656 67.5989 7.88789C67.5991 8.24681 67.632 8.60496 67.6972 8.9579C67.6972 8.9579 67.6509 7.67582 69.3764 7.67582H72.7388L72.7349 2.07129Z" fill="url(#paint6_linear_227_1877)"/>
<path style="mix-blend-mode:overlay" d="M72.7349 2.07129C71.353 2.24417 70.0777 2.90284 69.1368 3.92956C68.1959 4.95628 67.6508 6.28415 67.5989 7.67582C67.5989 7.74523 67.5989 7.81656 67.5989 7.88789C67.5991 8.24681 67.632 8.60496 67.6972 8.9579C67.6972 8.9579 67.6509 7.67582 69.3764 7.67582H72.7388L72.7349 2.07129Z" fill="url(#paint7_radial_227_1877)"/>
<defs>
<linearGradient id="paint0_linear_227_1877" x1="10.8305" y1="12.8948" x2="8.32993" y2="11.819" gradientUnits="userSpaceOnUse">
<stop offset="0.35" stop-color="#003863"/>
<stop offset="1" stop-color="#005D98"/>
</linearGradient>
<linearGradient id="paint1_linear_227_1877" x1="73.4657" y1="13.7218" x2="73.4657" y2="2.04428" gradientUnits="userSpaceOnUse">
<stop offset="0.1" stop-color="#003863"/>
<stop offset="0.35" stop-color="#29ABE2"/>
<stop offset="0.5" stop-color="#60CBF5"/>
<stop offset="0.65" stop-color="#179EDA"/>
<stop offset="0.9" stop-color="#003863"/>
</linearGradient>
<linearGradient id="paint2_linear_227_1877" x1="73.0069" y1="2.24292" x2="79.1474" y2="7.05507" gradientUnits="userSpaceOnUse">
<stop stop-color="#005D98"/>
<stop offset="0.35" stop-color="#29ABE2"/>
<stop offset="0.53" stop-color="#60CBF5"/>
<stop offset="0.61" stop-color="#46BBEB"/>
<stop offset="0.7" stop-color="#2CABE2"/>
<stop offset="0.78" stop-color="#1CA1DC"/>
<stop offset="0.85" stop-color="#179EDA"/>
<stop offset="0.87" stop-color="#1698D3"/>
<stop offset="0.9" stop-color="#1287BF"/>
<stop offset="0.94" stop-color="#0B6B9E"/>
<stop offset="0.99" stop-color="#034471"/>
<stop offset="1" stop-color="#003863"/>
</linearGradient>
<linearGradient id="paint3_linear_227_1877" x1="77.9056" y1="7.5987" x2="73.8107" y2="12.6152" gradientUnits="userSpaceOnUse">
<stop stop-color="#00BDF2"/>
<stop offset="0.43" stop-color="#008DCB"/>
<stop offset="0.8" stop-color="#006AAF"/>
<stop offset="1" stop-color="#005DA4"/>
</linearGradient>
<radialGradient id="paint4_radial_227_1877" cx="0" cy="0" r="1" gradientUnits="userSpaceOnUse" gradientTransform="translate(73.427 7.93223) scale(5.88987 5.88987)">
<stop stop-color="white" stop-opacity="0.01"/>
<stop offset="0.85" stop-color="white" stop-opacity="0"/>
<stop offset="1" stop-color="white"/>
</radialGradient>
<linearGradient id="paint5_linear_227_1877" x1="73.9244" y1="13.4945" x2="67.782" y2="8.68423" gradientUnits="userSpaceOnUse">
<stop stop-color="#005D98"/>
<stop offset="0.35" stop-color="#29ABE2"/>
<stop offset="0.53" stop-color="#60CBF5"/>
<stop offset="0.61" stop-color="#46BBEB"/>
<stop offset="0.7" stop-color="#2CABE2"/>
<stop offset="0.78" stop-color="#1CA1DC"/>
<stop offset="0.85" stop-color="#179EDA"/>
<stop offset="0.87" stop-color="#1698D3"/>
<stop offset="0.9" stop-color="#1287BF"/>
<stop offset="0.94" stop-color="#0B6B9E"/>
<stop offset="0.99" stop-color="#034471"/>
<stop offset="1" stop-color="#003863"/>
</linearGradient>
<linearGradient id="paint6_linear_227_1877" x1="69.0236" y1="8.14045" x2="73.1186" y2="3.12587" gradientUnits="userSpaceOnUse">
<stop stop-color="#00BDF2"/>
<stop offset="0.43" stop-color="#008DCB"/>
<stop offset="0.8" stop-color="#006AAF"/>
<stop offset="1" stop-color="#005DA4"/>
</linearGradient>
<radialGradient id="paint7_radial_227_1877" cx="0" cy="0" r="1" gradientUnits="userSpaceOnUse" gradientTransform="translate(73.5022 7.66618) rotate(180) scale(5.88987 5.88987)">
<stop stop-color="white" stop-opacity="0.01"/>
<stop offset="0.85" stop-color="white" stop-opacity="0"/>
<stop offset="1" stop-color="white"/>
</radialGradient>
</defs>
</svg>
